# xmcd
#
# Track frame offsets: 
#        151
#        19289
#        40862
#        58396
#        75738
#        91626
#        109031
#        127789
#        148349
#        166257
#        185250
#
# Disc length: 2670 seconds
#
# Revision: 2
# Processed by: cddbd v1.4PL0 Copyright (c) Steve Scherf et al.
# Submitted via: ExactAudioCopy v0.90b2
#
DISCID=8b0a6c0b
DTITLE=Lhasa - La Llorona
DYEAR=1900
DGENRE=
TTITLE0=La face contre le mur
TTITLE1=La Celestine
TTITLE2=Le d sert
TTITLE3=C'est pour  a que je reste
TTITLE4=Le payande
TTITLE5=Les poissons
TTITLE6=Floricento
TTITLE7=D daigneuse
TTITLE8=L'oiseau
TTITLE9=La v rit 
TTITLE10=L'arbre de l'oubli
EXTD=
EXTT0=
EXTT1=
EXTT2=
EXTT3=
EXTT4=
EXTT5=
EXTT6=
EXTT7=
EXTT8=
EXTT9=
EXTT10=
PLAYORDER=
